<svg xmlns="http://www.w3.org/2000/svg" xmlns:xlink="http://www.w3.org/1999/xlink" viewBox="0 0 98 28.35"><defs><style>.cls-1{fill:none;}.cls-2{clip-path:url(#clip-path);}.cls-3{clip-path:url(#clip-path-2);}.cls-4{fill:#6c63ff;}</style><clipPath id="clip-path" transform="translate(5 5)"><polyline class="cls-1" points="51.54 10.56 51.54 8.13 52.3 8.13 52.3 5.28 52.8 5.28 52.8 3.85 54.56 3.85 54.56 5.28 55.23 5.28 55.23 8.46 55.82 8.46 55.82 12.07 58.33 12.07 58.33 8.13 58.92 8.13 58.92 10.48 60.26 10.48 60.26 9.39 62.94 9.39 62.94 13.91 64.03 13.91 64.03 12.65 64.78 12.65 64.78 11.57 65.88 11.57 65.88 13.07 66.8 13.07 66.8 9.39 67.13 9.39 67.13 11.48 68.14 11.48 68.14 10.81 70.4 10.81 70.4 11.98 72.08 11.98 72.08 13.33 73.5 13.33 73.5 14.75 74.59 14.75 74.59 13.49 77.27 13.49 77.27 11.98 77.94 11.98 77.94 14.41 79.2 14.41 79.2 11.4 80.88 11.4 80.88 12.99 83.47 12.99 83.47 14 85.4 14 85.4 15.51 86.99 15.51 86.99 14.75 88 14.75 88 18.35 0 18.35 0 14.83 2.18 14.83 2.18 16.18 3.69 16.18 3.69 15.25 4.27 15.25 4.27 7.04 6.37 7.04 6.37 5.53 8.55 5.53 8.55 6.7 11.57 6.7 11.57 9.22 12.57 9.22 12.57 5.11 13.16 5.11 13.16 3.32 14 3.32 14 4.11 16.43 4.11 16.43 9.97 17.77 9.97 17.77 7.88 18.52 7.88 18.52 5.95 19.19 5.95 19.19 4.95 21.54 4.95 21.54 10.06 22.88 10.06 22.88 4.69 25.39 4.69 25.39 8.13 26.9 8.13 26.9 4.44 30.76 4.44 30.76 9.72 32.35 9.72 32.35 11.05 33.36 11.05 33.36 5.11 34.03 5.11 34.03 4.27 34.61 4.27 34.61 3.32 36.54 3.32 36.54 4.36 37.38 4.36 37.38 7.96 40.23 7.96 40.23 12.07 41.49 12.07 41.49 10.48 43.75 10.48 43.75 5.87 44.67 5.87 44.67 4.36 45.26 4.36 45.26 3.32 45.84 3.32 45.84 0 46.51 0 46.51 3.32 47.35 3.32 47.35 4.69 47.94 4.69 47.94 5.95 48.61 5.95"/></clipPath><clipPath id="clip-path-2" transform="translate(5 5)"><rect class="cls-1" x="-279" y="-19" width="1440" height="1499"/></clipPath></defs><g id="Layer_2" data-name="Layer 2"><g id="Layer_1-2" data-name="Layer 1"><g class="cls-2"><g class="cls-3"><rect class="cls-4" width="98" height="28.35"/></g></g></g></g></svg>