<svg xmlns="http://www.w3.org/2000/svg" xmlns:xlink="http://www.w3.org/1999/xlink" viewBox="0 0 350 307"><defs><style>.cls-1,.cls-20{fill:none;}.cls-2{clip-path:url(#clip-path);}.cls-3{clip-path:url(#clip-path-2);}.cls-4{fill:#f2f2f2;}.cls-5{clip-path:url(#clip-path-3);}.cls-6{fill:#32c5ff;}.cls-7{clip-path:url(#clip-path-5);}.cls-8{fill:#ffb9b9;}.cls-9{clip-path:url(#clip-path-7);}.cls-10{fill:#575a89;}.cls-11{clip-path:url(#clip-path-9);}.cls-12{clip-path:url(#clip-path-11);}.cls-13{clip-path:url(#clip-path-13);}.cls-14{fill:#fff;}.cls-15{clip-path:url(#clip-path-15);}.cls-16{clip-path:url(#clip-path-17);}.cls-17{clip-path:url(#clip-path-19);}.cls-18{clip-path:url(#clip-path-21);}.cls-19{clip-path:url(#clip-path-23);}.cls-20{stroke:#575a89;stroke-miterlimit:10;stroke-width:5px;}.cls-21{clip-path:url(#clip-path-25);}.cls-22{clip-path:url(#clip-path-27);}.cls-23{clip-path:url(#clip-path-29);}.cls-24{clip-path:url(#clip-path-31);}.cls-25{opacity:0.1;}.cls-26{clip-path:url(#clip-path-33);}.cls-27{clip-path:url(#clip-path-35);}.cls-28{clip-path:url(#clip-path-37);}.cls-29{clip-path:url(#clip-path-39);}.cls-30{clip-path:url(#clip-path-41);}.cls-31{clip-path:url(#clip-path-43);}.cls-32{clip-path:url(#clip-path-45);}</style><clipPath id="clip-path" transform="translate(5 5)"><path class="cls-1" d="M14,277.55,16.36,246,23,279.36s-.09,8.42-.31,17.64H14.18C13.9,286.46,14,277.55,14,277.55Z"/></clipPath><clipPath id="clip-path-2" transform="translate(5 5)"><rect class="cls-1" x="-934" y="-320" width="1440" height="1499"/></clipPath><clipPath id="clip-path-3" transform="translate(5 5)"><ellipse class="cls-1" cx="261" cy="68.5" rx="50" ry="45.5"/></clipPath><clipPath id="clip-path-5" transform="translate(5 5)"><path class="cls-1" d="M177.44,216.62h0s-16.92-11.49-16.92-16.72-11.64-39.19-18-24,9,36.58,9,36.58,16.92,30.31,27,35.54S197,250.07,197,250.07V236l-9.67-14.14A12,12,0,0,0,177.44,216.62Z"/></clipPath><clipPath id="clip-path-7" transform="translate(5 5)"><path class="cls-1" d="M226,136s-25.17,8-27.79,11.66-3.68-2.63-11,21.57a253.36,253.36,0,0,0-9.19,47.6s18.11,6,16,29.72S197.16,296,197.16,296h6.55l14.44-44.71-17.32-67.86S225.45,141.7,226,136Z"/></clipPath><clipPath id="clip-path-9" transform="translate(5 5)"><circle class="cls-1" cx="234" cy="83" r="32"/></clipPath><clipPath id="clip-path-11" transform="translate(5 5)"><path class="cls-1" d="M221.73,106.37s8.91,29.69,1,33.93S206,163.62,206,163.62L219.63,179h31.45l14.15-15.91,5.77-27-7.86-6.37s-8.39-21.2-8.39-32.34S221.73,106.37,221.73,106.37Z"/></clipPath><clipPath id="clip-path-13" transform="translate(5 5)"><path class="cls-1" d="M219.3,138.28s6.31-1.58,2.63,4.75-7.37,17.93,5.78,18.46,26.31-6.33,30.51-20.57,5.79-13.19,7.37-12.66S284,146.19,284,146.19l-5.79,32.71L276.11,296h-76.8s-3.16-33.76,2.1-41.67-4.73-28-4.73-28-8.94-13.71-2.1-40.09S216.67,138.28,219.3,138.28Z"/></clipPath><clipPath id="clip-path-15" transform="translate(5 5)"><path class="cls-1" d="M262.57,129.06a14.08,14.08,0,0,1,14.85,2.63c6.89,6.3,22.27,11.55,22.27,14.7s-13.26,92.92-4.25,108.66S314,296,314,296H269.78s-7.21-26.25-14.63-40.42-6.89-54.07-4.77-66.15S262.57,129.06,262.57,129.06Z"/></clipPath><clipPath id="clip-path-17" transform="translate(5 5)"><polygon class="cls-1" points="308 267.89 305.44 296 277 296 279.59 261 308 267.89"/></clipPath><clipPath id="clip-path-19" transform="translate(5 5)"><polygon class="cls-1" points="180 253.26 173.16 296 21.15 296 8 210 180 253.26"/></clipPath><clipPath id="clip-path-21" transform="translate(5 5)"><polygon class="cls-1" points="1.57 205 0 212.86 196 260 196 253.19 1.57 205"/></clipPath><clipPath id="clip-path-23" transform="translate(5 5)"><polygon class="cls-1" points="84.91 219.5 86 228 74 226.5 78.91 218 84.91 219.5"/></clipPath><clipPath id="clip-path-25" transform="translate(5 5)"><path class="cls-1" d="M144,128.5c0,2.48,2.8,4.5,7.28,4.5s6.72-2,6.72-4.5-2.23-4.5-6.72-4.5S144,126,144,128.5Z"/></clipPath><clipPath id="clip-path-27" transform="translate(5 5)"><path class="cls-1" d="M184.05,210.53s-3.91-16.46,3.39-40.51,8.34-17.77,10.95-21.43S226,137,226,137c-.18,1.86-2.94,7.59-6.57,14.44a27.7,27.7,0,0,1,2.94-7c3.65-6.27-2.6-4.7-2.6-4.7-2.61,0-17.73,21.43-24.51,47.57S197.34,227,197.34,227Z"/></clipPath><clipPath id="clip-path-29" transform="translate(5 5)"><path class="cls-1" d="M226,136s-3.22,12-6,13.71S201,168,201,168l2.12-13.35,8.72-12.79,2.31-1.64Z"/></clipPath><clipPath id="clip-path-31" transform="translate(5 5)"><path class="cls-1" d="M295.47,172l-.74-27s17.35,7.34,18.94,38.78S311,274.44,305.22,275,272,269.2,272,269.2s-4.22-76-2.64-85.94S295.47,172,295.47,172Z"/></clipPath><clipPath id="clip-path-33" transform="translate(5 5)"><path class="cls-1" d="M294.45,145h4.28s17.35,7.34,18.94,38.78S315,274.44,309.22,275,276,269.2,276,269.2s-4.22-76-2.64-85.94S294.45,145,294.45,145Z"/></clipPath><clipPath id="clip-path-35" transform="translate(5 5)"><ellipse class="cls-1" cx="272.5" cy="74.5" rx="32.5" ry="36.5"/></clipPath><clipPath id="clip-path-37" transform="translate(5 5)"><ellipse class="cls-1" cx="249" cy="93.5" rx="7" ry="9.5"/></clipPath><clipPath id="clip-path-39" transform="translate(5 5)"><circle class="cls-1" cx="304" cy="38" r="27"/></clipPath><clipPath id="clip-path-41" transform="translate(5 5)"><path class="cls-1" d="M300.57,59.45A27,27,0,0,0,339.69,38a27,27,0,1,1-53.57,1.5A26.91,26.91,0,0,0,300.57,59.45Z"/></clipPath><clipPath id="clip-path-43" transform="translate(5 5)"><path class="cls-1" d="M319.61,42.54a26.8,26.8,0,0,0,4.49-24.87A27.16,27.16,0,0,0,305.89,0a27.24,27.24,0,0,1,24,16.48A26.81,26.81,0,0,1,325.06,45,27.43,27.43,0,0,1,297,52.89,27.33,27.33,0,0,0,319.61,42.54Z"/></clipPath><clipPath id="clip-path-45" transform="translate(5 5)"><ellipse class="cls-1" cx="233" cy="58.5" rx="19" ry="13.5"/></clipPath></defs><g id="Layer_2" data-name="Layer 2"><g id="Layer_2-2" data-name="Layer 2"><g class="cls-2"><g class="cls-3"><rect class="cls-4" x="14" y="246" width="19" height="61"/></g></g><g class="cls-5"><g class="cls-3"><rect class="cls-6" x="211" y="23" width="110" height="101"/></g></g><g class="cls-7"><g class="cls-3"><rect class="cls-8" x="141" y="172" width="66" height="89"/></g></g><g class="cls-9"><g class="cls-3"><rect class="cls-10" x="178" y="136" width="58" height="170"/></g></g><g class="cls-11"><g class="cls-3"><rect class="cls-8" x="202" y="51" width="74" height="74"/></g></g><g class="cls-12"><g class="cls-3"><rect class="cls-8" x="206" y="94" width="75" height="95"/></g></g><g class="cls-13"><g class="cls-3"><rect class="cls-14" x="192" y="128" width="102" height="178"/></g></g><g class="cls-15"><g class="cls-3"><rect class="cls-10" x="249" y="128" width="75" height="178"/></g></g><g class="cls-16"><g class="cls-3"><rect class="cls-8" x="277" y="261" width="41" height="45"/></g></g><g class="cls-17"><g class="cls-3"><rect class="cls-10" x="8" y="210" width="182" height="96"/></g></g><g class="cls-18"><g class="cls-3"><rect class="cls-10" y="205" width="206" height="65"/></g></g><g class="cls-19"><g class="cls-3"><rect class="cls-10" x="74" y="218" width="22" height="20"/></g></g><path class="cls-20" d="M149,129s-23.33-1.57-29.7,16.19-21.21,49.64-27,54.35S80.06,216.82,81.12,221" transform="translate(5 5)"/><g class="cls-21"><g class="cls-3"><rect class="cls-14" x="144" y="124" width="24" height="19"/></g></g><g class="cls-22"><g class="cls-3"><rect class="cls-10" x="183" y="137" width="53" height="100"/></g></g><g class="cls-23"><g class="cls-3"><rect class="cls-10" x="201" y="136" width="35" height="42"/></g></g><g class="cls-24"><g class="cls-3"><rect class="cls-25" x="269" y="145" width="55" height="140"/></g></g><g class="cls-26"><g class="cls-3"><rect class="cls-10" x="273" y="145" width="55" height="140"/></g></g><g class="cls-27"><g class="cls-3"><rect class="cls-6" x="240" y="38" width="75" height="83"/></g></g><g class="cls-28"><g class="cls-3"><rect class="cls-8" x="242" y="84" width="24" height="29"/></g></g><g class="cls-29"><g class="cls-3"><rect class="cls-6" x="277" y="11" width="64" height="64"/></g></g><g class="cls-30"><g class="cls-3"><rect class="cls-6" x="286" y="38" width="64" height="41"/></g></g><g class="cls-31"><g class="cls-3"><rect class="cls-6" x="297" width="45" height="64"/></g></g><g class="cls-32"><g class="cls-3"><rect class="cls-6" x="214" y="45" width="48" height="37"/></g></g></g></g></svg>